#!OML:ASF E:/inclinewalkrobotboard/Project1/Captureday1/Session1/subject1.ASF
:FULLY-SPECIFIED
:DEGREES
101
root 0 0 0 1.0394426258877134 -3.6723758059231453 1.8304101912998516
lowerback 11.97865037718577 0.8495060321610141 -0.06290769455966347
upperback -4.230549606300643 1.0787594273943968 -0.5428227981896665
thorax -11.34139966429954 0.4937969815414955 -0.7840719999468067
lowerneck -5.780381401502802 1.486443243917348 4.564916708808451
upperneck 18.03457995103066 2.9414866518412834 -8.344018989896323
head 6.589203902863273 1.074100567310869 -3.224790442922063
rclavicle 1.9510512417468866E-16 -2.0345839206546426E-15
rhumerus 19.885705531596617 14.346936462965655 -47.73799137888879
rradius 72.23004966934816
rwrist 27.130292215629908
rhand -34.62963937401393 -57.105191563000986
rfingers 7.125020000000035
rthumb -7.782648319044442 -87.15975064235664
lclavicle -1.2240792965574453E-16 -4.486538851500289E-16
lhumerus 21.029233843715332 -12.45468536649993 45.30248574268221
lradius 70.0287018546211
lwrist -22.26438381245275
lhand -44.78327491069729 -70.24655290607761
lfingers 7.125020000000026
lthumb -17.571364470841004 -40.92489306040925
rfemur -24.69725185179996 -2.314924493923491 17.111217943647723
rtibia 54.50937284560405
rfoot -28.99437736817787 -16.654631626523738
rtoes -18.495662390842284
lfemur -25.901270671090316 2.439472795258817 -18.0638801092282
ltibia 53.19818394115746
lfoot -30.790930913694645 -3.4574550480365223
ltoes -20.87522763040741
102
root 0 0 0 1.0392898480885693 -3.6727894048260334 1.830241140213575
lowerback 11.978665901847137 0.849452204449966 -0.0627760253824903
upperback -4.230439988066805 1.0787178075893267 -0.5427262701226803
thorax -11.341309783822124 0.4937724301819445 -0.7840354786546048
lowerneck -5.7793831321951465 1.48637825064334 4.565063013243261
upperneck 18.034021398015508 2.9414676760110487 -8.344456630009539
head 6.588856844679095 1.074072714260444 -3.2249433258444387
rclavicle 1.8435372702019685E-16 -2.0263803301820166E-15
rhumerus 19.887089299502 14.348713653978027 -47.737060843242155
rradius 72.23058563903848
rwrist 27.129027473535672
rhand -34.62532629195536 -57.09910101284173
rfingers 7.125020000000035
rthumb -7.7783987371406065 -87.15337361532693
lclavicle -1.3360584876008093E-16 -4.3865080464281063E-16
lhumerus 21.03059540179813 -12.456846493883061 45.301094516602305
lradius 70.02923404577106
lwrist -22.263883630599956
lhand -44.78206368096093 -70.23619972891204
lfingers 7.125020000000026
lthumb -17.570069808217976 -40.91483001872352
rfemur -24.695892764850026 -2.3136884720713744 17.111409613387025
rtibia 54.5025908656523
rfoot -28.995172021465226 -16.65442848877639
rtoes -18.49441287932597
lfemur -25.897531726729696 2.4391609619904258 -18.06326497462856
ltibia 53.19361108536388
lfoot -30.79487898133754 -3.4554214761650948
ltoes -20.882753943783538
103
root 0 0 0 1.0393175407824622 -3.6726513919162556 1.8303274163108714
lowerback 11.978642941887468 0.8494789668704024 -0.062810320124768
upperback -4.230479139317422 1.0787406357332427 -0.5427653500066858
thorax -11.34131786100608 0.49378595101064593 -0.7840595764858438
lowerneck -5.7797540525841224 1.4864055477352012 4.565047774255662
upperneck 18.03424582497847 2.9414709843051154 -8.344341713479908
head 6.588988396488966 1.0740897364908024 -3.2249130785362063
rclavicle 2.0732804253310777E-16 -2.0346988968383085E-15
rhumerus 19.887635320048766 14.348899294388426 -47.73778568478967
rradius 72.23149562097001
rwrist 27.129734406315954
rhand -34.62830270611333 -57.10389273792782
rfingers 7.125020000000035
rthumb -7.7813801396280144 -87.15841143887639
lclavicle -1.1066813912374975E-16 -4.504349655216E-16
lhumerus 21.029565753439314 -12.455443860995056 45.30150399945959
lradius 70.02925648589327
lwrist -22.264735971724328
lhand -44.78266422405565 -70.24344324716651
lfingers 7.125020000000026
lthumb -17.570770047103338 -40.92175713535066
rfemur -24.696781978820724 -2.3147194306689203 17.11122723058003
rtibia 54.50819544193245
rfoot -28.994994376975377 -16.65465580465969
rtoes -18.496602345827956
lfemur -25.899702211985407 2.439486346511896 -18.063608211648987
ltibia 53.1964305217248
lfoot -30.791700891208656 -3.4570255007024198
ltoes -20.87885693113793
104
root 0 0 0 1.0393647380829372 -3.672530398678436 1.8303677336139155
lowerback 11.97863963576942 0.8494926853937387 -0.06285330123573293
upperback -4.230510874223425 1.0787506974051952 -0.54279239955741
thorax -11.341350041639624 0.49379184514156454 -0.7840671214201449
lowerneck -5.780026953409051 1.4864266731613784 4.564999840662831
upperneck 18.034399757467 2.941483515061809 -8.344208946521865
head 6.589084605972802 1.0740975443741039 -3.224863510663088
rclavicle 1.9900319961205896E-16 -2.0346075783104743E-15
rhumerus 19.886641588943696 14.347858547596225 -47.73777348651419
rradius 72.230731997504
rwrist 27.130097256242003
rhand -34.628885339782 -57.104497308877704
rfingers 7.125020000000035
rthumb -7.781925345621234 -87.15905421783489
lclavicle -1.1850998484795177E-16 -4.49345578054627E-16
lhumerus 21.029476725608447 -12.45512106140739 45.30195728456717
lradius 70.02902608741041
lwrist -22.26455924998613
lhand -44.782988987036006 -70.24503547794582
lfingers 7.125020000000026
lthumb -17.571093401445744 -40.92333082943192
rfemur -24.697108096827392 -2.3148840703660536 17.111253092053264
rtibia 54.50912412045058
rfoot -28.994655701814448 -16.654601073953383
rtoes -18.49603214388495
lfemur -25.900418766652272 2.439538934074702 -18.06374289588213
ltibia 53.19762188280295
lfoot -30.791073925575738 -3.4573856808839363
ltoes -20.877103241200224
105
root 0 0 0 1.0394382985122905 -3.6723839043256565 1.8304074457464976
lowerback 11.97865056416818 0.8495050100309482 -0.06290433811551563
upperback -4.230546904998805 1.078758663199539 -0.5428208987091578
thorax -11.341396789059084 0.4937965395824878 -0.7840716405643235
lowerneck -5.780360712888779 1.486441701325585 4.564920841802154
upperneck 18.034567789408076 2.9414856694993468 -8.344029482992998
head 6.589196426028565 1.0740999970024658 -3.2247944435357088
rclavicle 1.9519559582352567E-16 -2.0345693375171384E-15
rhumerus 19.885739531967104 14.34696964435912 -47.737980673938786
rradius 72.23007288811087
rwrist 27.130285244173358
rhand -34.62960515712674 -57.10515543530525
rfingers 7.125020000000035
rthumb -7.7826156567091695 -87.15971411509028
lclavicle -1.2231238530841303E-16 -4.486544997044823E-16
lhumerus 21.02924504077486 -12.454705651244065 45.302462959345156
lradius 70.02871515011228
lwrist -22.26438932535061
lhand -44.783262289651894 -70.24648003439664
lfingers 7.125020000000026
lthumb -17.571352376873318 -40.92481905164031
rfemur -24.697250304070028 -2.3149244371546254 17.111218803048136
rtibia 54.509372655935174
rfoot -28.994384080410484 -16.654631693780388
rtoes -18.495667803082334
lfemur -25.901250586566 2.4394814353308725 -18.063873929541856
ltibia 53.198186923935694
lfoot -30.79092736847634 -3.457450647189638
ltoes -20.87528000826898
